<?xml version="1.0" standalone="no"?>
<!DOCTYPE svg PUBLIC "-//W3C//DTD SVG 20010904//EN"
 "http://www.w3.org/TR/2001/REC-SVG-20010904/DTD/svg10.dtd">
<svg version="1.0" xmlns="http://www.w3.org/2000/svg"
 width="512.000000pt" height="512.000000pt" viewBox="0 0 512.000000 512.000000"
 preserveAspectRatio="xMidYMid meet">

<g transform="translate(0.000000,512.000000) scale(0.100000,-0.100000)"
fill="#000000" stroke="none">
<path d="M2906 4855 c-163 -58 -217 -259 -101 -378 60 -62 86 -71 222 -75 120
-4 122 -4 147 22 34 33 34 79 1 111 -22 23 -31 25 -125 25 -94 0 -103 2 -125
25 -30 29 -32 64 -6 96 18 23 25 24 143 24 136 0 172 -11 229 -68 49 -49 63
-85 64 -163 0 -61 -4 -77 -30 -120 -19 -30 -49 -60 -79 -79 l-49 -30 -1020 -5
-1019 -5 -19 -24 c-27 -33 -24 -77 6 -107 l24 -24 1023 2 1023 3 60 24 c84 34
183 134 215 216 88 235 -44 482 -288 534 -74 15 -248 13 -296 -4z"/>
<path d="M4026 4295 c-163 -58 -217 -259 -101 -378 60 -62 86 -71 222 -75 120
-4 122 -4 147 22 34 33 34 79 1 111 -22 23 -31 25 -125 25 -94 0 -103 2 -125
25 -30 29 -32 64 -6 96 18 23 25 24 143 24 136 0 172 -11 229 -68 49 -49 63
-85 64 -163 0 -61 -4 -77 -30 -120 -19 -30 -49 -60 -79 -79 l-49 -30 -1100 -5
-1099 -5 -19 -24 c-27 -33 -24 -77 6 -107 l24 -24 1103 2 1103 3 60 24 c84 34
183 134 215 216 88 235 -44 482 -288 534 -74 15 -248 13 -296 -4z"/>
<path d="M265 4215 c-16 -15 -25 -36 -25 -55 0 -19 9 -40 25 -55 l24 -25 311
0 311 0 24 25 c33 32 33 78 0 110 l-24 25 -311 0 -311 0 -24 -25z"/>
<path d="M265 3655 c-16 -15 -25 -36 -25 -55 0 -19 9 -40 25 -55 l24 -25 791
0 791 0 24 25 c33 32 33 78 0 110 l-24 25 -791 0 -791 0 -24 -25z"/>
<path d="M265 3095 c-16 -15 -25 -36 -25 -55 0 -19 9 -40 25 -55 l24 -25 231
0 231 0 24 25 c33 32 33 78 0 110 l-24 25 -231 0 -231 0 -24 -25z"/>
<path d="M985 3095 c-16 -15 -25 -36 -25 -55 0 -19 9 -40 25 -55 l24 -25 671
0 671 0 24 25 c33 32 33 78 0 110 l-24 25 -671 0 -671 0 -24 -25z"/>
<path d="M2665 3096 c-30 -30 -33 -74 -6 -107 l19 -24 939 -5 940 -5 49 -30
c30 -19 60 -49 79 -79 26 -43 30 -59 30 -120 -1 -81 -15 -116 -72 -171 -52
-50 -119 -68 -245 -63 -91 3 -102 5 -119 27 -26 32 -24 67 6 96 22 23 31 25
125 25 94 0 103 2 125 25 33 32 33 78 0 110 -22 23 -31 25 -127 25 -117 0
-160 -9 -207 -44 -143 -106 -126 -316 33 -398 51 -27 224 -37 319 -18 251 49
386 294 296 536 -30 81 -130 181 -214 215 l-60 24 -943 3 -943 2 -24 -24z"/>
<path d="M2380 2553 c-286 -28 -530 -93 -778 -209 l-94 -44 20 -32 c11 -18 66
-113 122 -210 l102 -177 51 25 c146 75 346 133 540 159 65 8 122 15 128 15 5
0 9 95 9 240 l0 240 -32 -2 c-18 0 -49 -3 -68 -5z"/>
<path d="M2640 2322 l0 -239 38 -7 c79 -13 75 -16 122 107 35 93 50 120 89
157 51 50 101 70 178 70 67 0 148 -42 190 -97 49 -66 56 -120 33 -259 -10 -65
-17 -121 -14 -125 5 -9 93 -43 98 -38 1 2 55 95 119 207 l117 203 -93 43
c-254 119 -519 190 -789 211 l-88 7 0 -240z"/>
<path d="M3004 2231 c-12 -11 -100 -232 -219 -547 -109 -291 -200 -536 -202
-545 -4 -14 10 -19 76 -28 97 -14 168 -35 235 -67 28 -13 53 -21 56 -17 4 5
51 265 104 580 76 445 95 576 87 592 -27 50 -100 67 -137 32z"/>
<path d="M1275 2154 c-201 -140 -398 -337 -549 -548 -31 -43 -56 -84 -56 -90
0 -7 78 -56 173 -111 94 -55 186 -107 203 -117 l32 -19 58 83 c74 107 285 318
392 392 l83 58 -24 42 c-122 216 -213 366 -221 366 -6 -1 -47 -26 -91 -56z"/>
<path d="M3650 2048 c-52 -90 -104 -181 -117 -204 l-23 -41 83 -58 c108 -77
319 -288 391 -393 l58 -83 42 24 c201 113 366 212 366 219 0 14 -98 155 -157
227 -80 95 -206 223 -293 295 -94 79 -229 176 -245 176 -6 0 -54 -73 -105
-162z"/>
<path d="M536 1278 c-127 -273 -196 -543 -212 -840 l-7 -118 241 0 242 0 0 45
c0 205 73 513 166 696 18 37 30 70 26 72 -4 3 -95 55 -202 117 -107 62 -199
115 -203 117 -4 3 -27 -37 -51 -89z"/>
<path d="M4328 1249 l-206 -120 43 -92 c82 -174 138 -398 151 -614 l7 -103
240 0 240 0 -7 119 c-12 219 -61 458 -132 650 -35 93 -119 281 -126 281 -2 -1
-96 -55 -210 -121z"/>
<path d="M2420 944 c-177 -38 -348 -171 -429 -334 -40 -83 -70 -192 -71 -257
l0 -33 640 0 640 0 0 33 c-1 66 -31 175 -72 257 -129 257 -422 396 -708 334z"/>
</g>
</svg>
